<svg data-name="Layer 1" xmlns="http://www.w3.org/2000/svg" viewBox="0 0 1000 176"><path d="M1000 103.35c-15.73 0-22.75-5.21-32.47-12.41-11.11-8.24-24.94-18.49-50.88-18.49s-39.76 10.25-50.87 18.48c-9.72 7.21-16.73 12.41-32.47 12.41s-22.75-5.21-32.46-12.41C789.74 82.7 775.92 72.44 750 72.44s-39.78 10.26-50.89 18.49c-9.71 7.21-16.73 12.41-32.46 12.41s-22.75-5.21-32.46-12.41c-11.11-8.24-24.93-18.49-50.87-18.49s-39.77 10.26-50.88 18.49c-9.71 7.21-16.73 12.41-32.46 12.41s-22.75-5.21-32.46-12.41c-11.11-8.24-24.93-18.49-50.87-18.49s-39.76 10.26-50.87 18.49c-9.71 7.21-16.73 12.41-32.46 12.41s-22.75-5.21-32.46-12.41C289.75 82.7 275.92 72.44 250 72.44s-39.78 10.26-50.88 18.49c-9.71 7.21-16.73 12.41-32.46 12.41s-22.74-5.21-32.46-12.41c-11.11-8.24-24.93-18.49-50.87-18.49S43.57 82.7 32.46 90.93C22.74 98.14 15.73 103.35 0 103.35" fill="none" stroke="#000000" stroke-miterlimit="10" stroke-width="6"/></svg>
